<svg xmlns="http://www.w3.org/2000/svg" version="1.1" xmlns:xlink="http://www.w3.org/1999/xlink" viewBox="0 0 200 200" width="200" height="200"><rect width="200" height="200" fill="url('#gradient')"></rect><defs><linearGradient id="gradient" gradientTransform="rotate(45 0.5 0.5)"><stop offset="0%" stop-color="#ffffff"></stop><stop offset="100%" stop-color="#c0e6cf"></stop></linearGradient></defs><g><g fill="#000000" transform="matrix(3.115117788907438,0,0,3.115117788907438,18.08903485126055,121.83869392578643)" stroke="#806962" stroke-width="0.3"><path d="M9.98 0L9.15-2.66L4.45-2.66L3.63 0L-0.03 0L5.19-14.22L8.41-14.22L13.66 0L9.98 0ZM6.80-10.23L5.27-5.30L8.33-5.30L6.80-10.23ZM14.01-10.57L17.10-10.57L17.21-9.33Q18.30-10.76 20.22-10.76L20.22-10.76Q21.88-10.76 22.69-9.78Q23.51-8.79 23.54-6.81L23.54-6.81L23.54 0L20.23 0L20.23-6.67Q20.23-7.47 19.91-7.85Q19.59-8.22 18.74-8.22L18.74-8.22Q17.77-8.22 17.30-7.46L17.30-7.46L17.30 0L14.01 0L14.01-10.57ZM25.90-13.19L29.19-13.19L29.19-10.57L30.93-10.57L30.93-8.28L29.19-8.28L29.19-3.45Q29.19-2.85 29.40-2.62Q29.62-2.38 30.25-2.38L30.25-2.38Q30.74-2.38 31.07-2.44L31.07-2.44L31.07-0.09Q30.19 0.20 29.22 0.20L29.22 0.20Q27.52 0.20 26.71-0.61Q25.90-1.41 25.90-3.04L25.90-3.04L25.90-8.28L24.55-8.28L24.55-10.57L25.90-10.57L25.90-13.19ZM31.52-4.82L31.51-5.38Q31.51-6.96 32.13-8.20Q32.74-9.43 33.90-10.10Q35.05-10.76 36.60-10.76L36.60-10.76Q38.97-10.76 40.34-9.29Q41.71-7.82 41.71-5.29L41.71-5.29L41.71-5.18Q41.71-2.71 40.34-1.25Q38.96 0.20 36.62 0.20L36.62 0.20Q34.37 0.20 33.00-1.16Q31.63-2.51 31.52-4.82L31.52-4.82ZM34.81-5.77L34.80-5.18Q34.80-3.71 35.26-3.03Q35.72-2.34 36.62-2.34L36.62-2.34Q38.38-2.34 38.42-5.05L38.42-5.05L38.42-5.38Q38.42-8.22 36.60-8.22L36.60-8.22Q34.95-8.22 34.81-5.77L34.81-5.77ZM43.10-10.57L46.18-10.57L46.29-9.33Q47.38-10.76 49.31-10.76L49.31-10.76Q50.96-10.76 51.77-9.78Q52.59-8.79 52.62-6.81L52.62-6.81L52.62 0L49.32 0L49.32-6.67Q49.32-7.47 48.99-7.85Q48.67-8.22 47.82-8.22L47.82-8.22Q46.86-8.22 46.39-7.46L46.39-7.46L46.39 0L43.10 0L43.10-10.57Z"></path></g></g></svg>